<svg xmlns="http://www.w3.org/2000/svg" viewBox="0 0 1280 560" role="img" aria-labelledby="title desc">
  <title id="title">Rota dos Carneiros Restaurante</title>
  <desc id="desc">Identidade visual horizontal com fundo bege, rota tracejada, marcadores vermelho e verde, casa, talheres e coqueiros.</desc>
  <defs>
    <style>
      @import url('https://fonts.googleapis.com/css2?family=Cinzel+Decorative:wght@400;700;900&amp;family=Cinzel:wght@400;500;600&amp;display=swap');
      .brand-title { font-family: 'Cinzel Decorative', 'Cinzel', Georgia, serif; font-weight: 700; fill: #0b0907; letter-spacing: 3px; }
      .brand-subtitle { font-family: 'Cinzel', Georgia, serif; font-weight: 500; fill: #0b0907; letter-spacing: 22px; }
      .stroke { stroke: #0b0907; stroke-linecap: round; stroke-linejoin: round; fill: none; }
    </style>
    <filter id="softShadow" x="-20%" y="-20%" width="140%" height="140%">
      <feDropShadow dx="0" dy="8" stdDeviation="9" flood-color="#5f3d1c" flood-opacity=".14"/>
    </filter>
  </defs>

  <rect width="1280" height="560" fill="#e9cfad"/>

  <g transform="translate(0 4)">
    <text x="490" y="190" text-anchor="middle" class="brand-title" font-size="78">ROTA</text>
    <text x="490" y="316" text-anchor="middle" class="brand-title" font-size="86">DOS CARNEIROS</text>
    <line x1="300" y1="352" x2="855" y2="352" stroke="#0b0907" stroke-width="11"/>
    <text x="490" y="430" text-anchor="middle" class="brand-subtitle" font-size="46">RESTAURANTE</text>
  </g>

  <path d="M820 86 C900 92 1000 112 1054 148 C1090 172 1072 202 1040 235 C1008 267 1010 320 1074 344" class="stroke" stroke-width="5" stroke-dasharray="22 20"/>

  <g filter="url(#softShadow)">
    <g transform="translate(790 54) rotate(-2)">
      <path d="M0 0 C42 0 76 33 76 73 C76 117 38 157 38 157 C38 157 0 117 0 73 C0 33 34 0 76 0" fill="none"/>
      <path d="M38 0 C80 0 114 33 114 73 C114 117 76 157 76 157 C76 157 38 117 38 73 C38 33 72 0 38 0" fill="none"/>
      <path d="M38 0 C80 0 114 33 114 73 C114 117 76 157 76 157 C76 157 38 117 38 73 C38 33 72 0 38 0" fill="#d7343f" transform="translate(-38)"/>
      <circle cx="38" cy="70" r="29" fill="#e9cfad"/>
    </g>

    <g transform="translate(1010 292)">
      <path d="M38 0 C80 0 114 33 114 73 C114 117 76 157 76 157 C76 157 38 117 38 73 C38 33 72 0 38 0" fill="#18a94d" transform="translate(-38)"/>
      <circle cx="38" cy="70" r="29" fill="#e9cfad"/>
    </g>
  </g>

  <g transform="translate(890 382)">
    <path d="M0 34 L74 0 L146 34" class="stroke" stroke-width="12"/>
    <path d="M24 34 L24 70 M122 34 L122 70" class="stroke" stroke-width="10"/>
    <g transform="translate(45 44) rotate(-30)">
      <path d="M0 0 L0 72" class="stroke" stroke-width="10"/>
      <path d="M-17 0 L-17 28 M0 0 L0 31 M17 0 L17 28" class="stroke" stroke-width="6"/>
    </g>
    <g transform="translate(88 41) rotate(24)">
      <ellipse cx="0" cy="18" rx="15" ry="22" fill="#0b0907"/>
      <path d="M0 38 L0 82" class="stroke" stroke-width="10"/>
    </g>
  </g>

  <g transform="translate(1056 385)">
    <path d="M72 116 C55 78 54 34 83 4" class="stroke" stroke-width="8"/>
    <path d="M98 116 C82 74 82 42 112 17" class="stroke" stroke-width="7"/>
    <path d="M82 14 C48 5 25 14 4 38 M84 14 C55 33 42 53 37 78 M86 14 C111 4 139 9 161 28 M86 15 C102 32 111 55 112 82" class="stroke" stroke-width="6"/>
    <path d="M111 25 C134 21 155 28 174 43 M111 25 C124 40 130 58 128 78" class="stroke" stroke-width="5"/>
  </g>

  <g transform="translate(850 510)">
    <path d="M0 18 C55 -8 88 39 146 13 C202 -12 238 40 302 15" class="stroke" stroke-width="4"/>
    <path d="M40 43 C92 17 128 63 184 38 C236 14 274 60 342 35" class="stroke" stroke-width="4"/>
  </g>
</svg>
