<?xml version="1.0" standalone="no"?>
<!DOCTYPE svg PUBLIC "-//W3C//DTD SVG 20010904//EN"
 "http://www.w3.org/TR/2001/REC-SVG-20010904/DTD/svg10.dtd">
<svg version="1.0" xmlns="http://www.w3.org/2000/svg"
 width="1289.000000pt" height="601.000000pt" viewBox="0 0 1289.000000 601.000000"
 preserveAspectRatio="xMidYMid meet">
 <!-- <rect width="1286" height="600" fill="#e9cfad"/> -->
<g transform="translate(0.000000,601.000000) scale(0.100000,-0.100000)"
fill="#fff" stroke="none">
<path fill="#d7343f"  d="M9198 5369 c-68 -16 -162 -70 -211 -121 -26 -28 -64 -84 -84 -126
-36 -71 -38 -80 -37 -171 0 -76 5 -108 23 -155 13 -32 103 -178 201 -325 98
-147 181 -277 185 -290 6 -21 11 -22 63 -16 116 12 132 16 132 32 0 13 -11 15
-71 11 -53 -4 -69 -2 -65 7 2 7 81 127 174 267 93 140 180 282 192 314 60 160
23 330 -100 454 -105 106 -261 152 -402 119z m190 -209 c81 -37 132 -115 132
-205 0 -141 -99 -232 -243 -223 -77 5 -132 36 -174 99 -37 57 -44 157 -15 215
59 116 188 165 300 114z"/>
<path d="M9670 4231 c-49 -5 -65 -10 -65 -21 0 -12 15 -14 90 -11 50 2 94 5
98 8 14 8 -15 33 -37 31 -11 -1 -50 -4 -86 -7z"/>
<path d="M9927 4234 c-17 -17 12 -24 99 -24 77 0 94 3 94 15 0 12 -17 15 -93
15 -52 0 -97 -3 -100 -6z"/>
<path d="M10252 4223 c3 -15 17 -18 96 -21 74 -2 92 0 92 11 0 17 -49 27 -133
27 -50 0 -58 -2 -55 -17z"/>
<path d="M10578 4209 c-23 -15 4 -27 89 -42 69 -12 85 -12 94 -1 14 17 7 20
-93 38 -42 7 -83 9 -90 5z"/>
<path d="M6160 4155 c-166 -47 -255 -213 -205 -382 44 -148 192 -232 358 -203
77 14 136 47 180 103 50 62 62 101 62 197 0 75 -4 91 -30 139 -32 58 -90 112
-147 135 -55 24 -155 28 -218 11z m191 -43 c90 -46 149 -159 149 -281 -1 -235
-316 -329 -441 -133 -78 123 -78 262 -1 352 77 90 192 115 293 62z"/>
<path d="M7155 4155 c-7 -5 -31 -105 -54 -222 -23 -116 -53 -244 -66 -282
l-24 -71 44 0 44 0 -6 95 -6 95 81 0 82 0 0 -58 c0 -31 -4 -73 -10 -91 -5 -19
-8 -36 -6 -39 6 -5 105 -7 110 -1 3 3 -4 34 -15 69 -11 35 -36 127 -56 204
-30 116 -35 150 -30 205 3 36 8 73 12 82 5 14 -2 18 -41 21 -25 2 -52 -1 -59
-7z m48 -209 c20 -79 37 -147 37 -150 0 -3 -31 -6 -70 -6 -48 0 -70 4 -70 12
0 27 55 288 60 288 4 0 23 -65 43 -144z"/>
<path d="M5546 4152 c-4 -7 0 -45 9 -86 9 -45 15 -126 15 -201 0 -75 -6 -156
-15 -201 -9 -41 -14 -78 -11 -82 5 -8 96 -5 104 2 2 2 -4 31 -12 64 -21 79
-20 92 4 92 52 0 86 -27 121 -94 l34 -66 48 0 c30 0 47 4 47 12 0 7 -32 45
-71 84 l-71 71 35 20 c60 36 91 87 95 159 7 98 -28 163 -110 205 -45 23 -211
38 -222 21z m194 -44 c54 -37 73 -71 78 -138 9 -118 -44 -190 -150 -205 l-48
-7 0 164 c0 132 3 168 16 186 20 29 61 29 104 0z"/>
<path d="M6617 4153 c-3 -5 -7 -37 -9 -73 -3 -61 -1 -65 19 -68 18 -3 23 3 29
35 10 57 30 83 64 83 20 0 33 -7 41 -21 17 -33 6 -398 -15 -469 -8 -30 -14
-56 -12 -58 5 -5 105 -6 110 -1 2 2 -3 29 -11 59 -20 72 -31 437 -14 469 8 14
21 21 40 21 33 0 47 -13 56 -55 13 -59 17 -65 36 -65 18 0 20 6 17 73 l-3 72
-172 3 c-94 1 -174 -1 -176 -5z"/>
<path d="M10893 4134 c-3 -8 -4 -16 -2 -17 67 -37 161 -77 169 -72 17 10 -6
33 -62 61 -82 41 -98 46 -105 28z"/>
<path d="M11111 3921 c-6 -11 -11 -28 -11 -39 0 -10 -11 -41 -26 -67 -18 -35
-22 -51 -14 -59 8 -8 16 -6 27 9 27 35 53 99 53 132 0 38 -15 51 -29 24z"/>
<path d="M10900 3589 c-47 -54 -59 -74 -50 -83 9 -8 26 5 71 53 53 58 75 101
49 101 -5 0 -37 -32 -70 -71z"/>
<path d="M10686 3344 c-60 -69 -66 -84 -38 -83 18 0 122 118 122 138 0 27 -33
6 -84 -55z"/>
<path d="M10487 3092 c-48 -69 -57 -92 -34 -92 15 0 107 125 107 145 0 33 -29
12 -73 -53z"/>
<path d="M4343 3050 c-87 -18 -168 -85 -206 -169 -34 -72 -31 -188 6 -263 100
-203 409 -223 534 -35 43 65 56 118 50 200 -10 112 -79 210 -179 251 -45 19
-151 27 -205 16z m178 -48 c95 -49 156 -173 147 -297 -9 -106 -67 -179 -166
-210 -141 -45 -271 33 -317 189 -30 99 -15 189 43 256 77 90 192 115 293 62z"/>
<path d="M4890 3049 c-39 -16 -79 -60 -86 -94 -11 -62 27 -115 165 -226 88
-71 112 -140 72 -206 -50 -80 -201 -39 -201 55 0 23 10 50 26 74 15 21 25 40
23 42 -2 2 -18 7 -36 10 -27 6 -34 3 -49 -19 -10 -15 -17 -47 -18 -78 -1 -94
61 -150 164 -150 107 0 170 55 170 149 0 65 -29 104 -141 189 -50 38 -97 81
-105 96 -37 73 2 139 83 139 78 0 118 -66 73 -123 -28 -36 -25 -47 15 -47 32
0 35 3 45 41 9 33 9 50 -2 78 -23 62 -126 98 -198 70z"/>
<path d="M5652 3045 c-265 -74 -302 -435 -57 -556 58 -28 75 -32 150 -32 75 0
92 4 150 32 59 29 115 82 115 108 0 11 -38 48 -44 42 -2 -2 -10 -17 -19 -34
-72 -140 -261 -167 -370 -51 -69 73 -103 208 -77 303 31 109 162 190 270 165
66 -15 121 -53 149 -102 30 -54 38 -56 58 -15 l17 35 -34 35 c-64 66 -206 98
-308 70z"/>
<path d="M8460 3045 c-184 -52 -272 -254 -185 -430 49 -101 145 -157 270 -158
129 -1 212 42 272 142 93 155 25 367 -139 435 -55 24 -155 28 -218 11z m191
-43 c150 -77 199 -330 87 -443 -90 -90 -225 -102 -326 -30 -81 60 -132 219
-102 325 40 143 210 217 341 148z"/>
<path d="M9003 3039 c-75 -37 -92 -116 -39 -187 13 -18 59 -61 103 -96 92 -74
114 -104 120 -160 8 -80 -48 -127 -132 -112 -82 16 -110 94 -59 168 15 21 25
40 23 42 -2 2 -18 7 -36 10 -27 6 -34 3 -49 -19 -10 -15 -17 -47 -18 -78 -1
-94 59 -149 163 -150 108 -1 171 54 171 149 0 65 -29 104 -141 189 -50 38 -97
81 -105 96 -37 73 1 139 81 139 80 0 120 -65 75 -123 -28 -36 -25 -47 15 -47
32 0 35 3 45 41 17 63 -3 108 -60 137 -55 27 -103 28 -157 1z"/>
<path d="M3625 3037 c-4 -8 -1 -32 5 -54 6 -21 14 -106 17 -189 4 -118 2 -168
-11 -233 -10 -46 -15 -85 -13 -88 3 -2 50 -4 106 -4 86 -1 108 3 153 24 117
53 170 135 170 260 0 122 -50 205 -155 257 -52 25 -79 31 -164 36 -88 6 -103
5 -108 -9z m220 -36 c46 -21 98 -69 123 -115 13 -23 17 -55 17 -132 0 -95 -2
-104 -30 -150 -40 -64 -107 -106 -180 -112 -52 -4 -54 -4 -62 24 -4 16 -8 128
-8 250 0 173 3 225 14 237 18 22 75 21 126 -2z"/>
<path d="M6185 3038 c-2 -7 -22 -106 -45 -220 -23 -114 -52 -239 -65 -277
l-23 -69 26 -4 c60 -8 62 -6 55 98 l-6 94 81 0 82 0 0 -58 c0 -31 -4 -73 -10
-91 -5 -19 -8 -36 -6 -39 4 -4 50 -5 95 -3 18 1 22 5 16 19 -4 9 -29 98 -56
197 -45 160 -50 188 -46 255 3 41 8 83 12 93 6 15 1 17 -49 17 -36 0 -58 -4
-61 -12z m58 -202 c20 -79 37 -147 37 -150 0 -3 -31 -6 -70 -6 -48 0 -70 4
-70 12 0 27 55 288 60 288 4 0 23 -65 43 -144z"/>
<path d="M6445 3037 c-4 -8 -1 -32 5 -54 6 -21 14 -106 17 -189 4 -118 2 -168
-11 -233 -10 -46 -14 -86 -11 -90 8 -7 93 -6 101 1 3 3 -2 33 -10 66 -22 82
-21 92 9 92 48 0 81 -27 116 -95 19 -36 39 -65 44 -66 6 0 21 -2 35 -3 14 -2
34 0 44 4 17 6 9 17 -58 88 l-77 81 28 14 c64 34 103 102 103 181 0 90 -34
147 -112 187 -52 27 -215 39 -223 16z m195 -39 c54 -37 73 -71 78 -138 9 -118
-44 -190 -150 -205 l-48 -7 0 160 c0 186 7 212 55 212 18 0 47 -10 65 -22z"/>
<path d="M6865 3040 c-3 -5 1 -23 10 -39 21 -42 21 -327 0 -440 -9 -45 -14
-85 -11 -90 6 -9 65 -5 74 4 3 3 0 29 -8 58 -13 54 -27 407 -15 395 4 -3 48
-107 99 -230 92 -222 92 -223 124 -226 31 -3 32 -2 25 25 -4 15 -8 120 -7 233
1 159 5 216 17 255 19 56 12 67 -38 63 -34 -3 -36 -13 -16 -109 7 -33 10 -123
9 -213 l-3 -157 -94 228 c-52 125 -99 234 -104 241 -11 14 -53 16 -62 2z"/>
<path d="M7255 3040 c-3 -5 1 -43 10 -84 20 -99 20 -304 -1 -402 -8 -42 -13
-78 -10 -81 10 -10 266 -7 275 2 5 6 12 39 16 73 7 58 6 64 -11 60 -9 -1 -22
-18 -28 -36 -20 -57 -51 -82 -105 -82 -26 0 -52 5 -59 12 -8 8 -12 58 -12 160
l0 148 26 0 c39 0 64 -18 64 -45 0 -14 4 -25 10 -25 11 0 16 21 25 98 5 43 3
52 -10 52 -8 0 -15 -8 -15 -18 0 -28 -21 -42 -62 -42 l-39 0 3 87 c3 80 5 88
26 99 27 13 87 3 109 -19 8 -8 20 -32 28 -53 7 -22 21 -41 30 -43 16 -3 17 3
11 60 -4 35 -12 69 -18 76 -13 16 -253 18 -263 3z"/>
<path d="M7637 3043 c-3 -5 2 -33 10 -63 22 -78 22 -373 0 -450 -8 -30 -14
-56 -12 -58 3 -4 53 -5 92 -3 21 1 21 2 7 54 -22 77 -29 276 -14 377 22 147
23 145 -32 148 -25 2 -48 -1 -51 -5z"/>
<path d="M7836 3042 c-4 -7 0 -45 9 -86 19 -97 20 -308 0 -401 -8 -38 -15 -73
-15 -77 0 -5 25 -8 55 -8 30 0 55 3 55 8 -1 4 -7 34 -15 67 -19 79 -19 85 5
85 52 0 86 -27 121 -94 33 -64 38 -68 89 -68 57 0 54 10 -30 97 l-71 72 34 21
c60 35 91 86 95 158 7 98 -28 163 -110 205 -45 23 -211 38 -222 21z m194 -44
c57 -39 74 -71 78 -146 6 -116 -44 -182 -150 -197 l-48 -7 0 160 c0 186 7 212
55 212 18 0 47 -10 65 -22z"/>
<path d="M10330 2827 c-42 -92 -47 -117 -24 -117 14 0 26 20 49 78 34 88 35
94 17 100 -7 2 -24 -21 -42 -61z"/>
<path fill="#18a94d"  d="M10730 2856 c-92 -19 -153 -68 -203 -161 -18 -33 -22 -57 -22 -130 0
-107 -6 -94 157 -339 66 -98 117 -181 114 -184 -3 -3 -35 7 -71 23 -66 28 -82
28 -72 2 7 -17 154 -80 167 -72 6 3 10 13 10 22 0 8 56 100 125 203 153 230
165 254 165 345 0 151 -96 267 -244 294 -33 6 -62 11 -65 10 -3 0 -31 -6 -61
-13z m144 -140 c66 -27 108 -117 87 -187 -50 -165 -283 -162 -321 4 -10 44 2
101 28 136 40 56 134 77 206 47z"/>
<path d="M10265 2570 c-9 -14 2 -121 15 -156 5 -13 17 -24 26 -24 13 0 15 6 9
33 -4 17 -10 59 -14 91 -6 57 -21 80 -36 56z"/>
<path d="M10370 2266 c0 -27 107 -126 137 -126 25 0 10 23 -53 83 -61 57 -84
69 -84 43z"/>
<path d="M3030 2210 l0 -50 3340 0 3340 0 0 50 0 50 -3340 0 -3340 0 0 -50z"/>
<path d="M9857 1826 c-153 -100 -287 -190 -297 -199 -37 -31 -14 -97 34 -97
10 0 142 81 293 180 l275 181 266 -174 c147 -95 273 -177 280 -181 20 -12 60
2 72 24 19 35 1 59 -90 120 l-89 60 -3 98 -3 97 -70 0 -70 0 -3 -42 c-2 -24
-7 -43 -12 -43 -5 0 -64 36 -131 80 -76 50 -132 80 -148 79 -16 0 -133 -70
-304 -183z"/>
<path d="M11260 1981 c0 -5 7 -11 14 -14 19 -8 42 -90 27 -95 -7 -2 -5 -14 5
-35 10 -19 13 -32 6 -35 -5 -1 -7 -13 -4 -25 5 -21 4 -21 -14 -6 -47 40 -129
50 -165 19 l-24 -19 30 -1 c17 -1 44 -7 60 -14 l30 -13 -31 -16 c-17 -8 -37
-23 -45 -33 -12 -15 -10 -16 31 -10 l45 7 -30 -20 c-40 -27 -91 -130 -100
-203 -9 -73 5 -76 39 -7 27 53 82 116 93 105 3 -3 26 10 50 30 49 40 51 39 23
-15 -84 -166 -80 -426 10 -618 25 -56 27 -63 11 -63 -9 0 -39 -11 -67 -24 -27
-14 -69 -30 -93 -36 -23 -6 -41 -14 -38 -17 9 -8 716 -7 725 1 16 16 -34 36
-90 36 -33 0 -79 5 -104 11 -56 14 -56 20 -9 211 23 92 38 180 42 246 7 114 2
111 66 34 l27 -34 0 34 c0 19 -7 43 -15 54 -8 10 -15 22 -15 27 0 13 40 7 66
-10 25 -16 26 -16 23 2 -2 11 -19 29 -37 42 l-33 22 23 13 c13 7 39 18 58 24
l35 11 -37 8 c-21 4 -54 5 -73 3 -42 -5 -44 4 -8 30 32 23 26 37 -11 28 -15
-4 -33 -20 -42 -38 l-16 -32 -22 45 c-11 24 -33 50 -48 59 -30 16 -50 7 -26
-13 16 -12 44 -85 36 -93 -3 -2 -19 1 -36 7 -22 7 -32 17 -32 32 0 11 -18 37
-39 57 -41 39 -42 68 -2 55 12 -4 21 -2 21 4 0 6 22 11 53 12 l52 1 -50 24
c-27 13 -67 24 -88 24 -23 0 -36 4 -32 10 3 6 15 10 26 10 30 0 23 18 -10 25
-33 7 -57 -2 -85 -34 -26 -29 -33 -26 -28 13 7 58 -17 147 -48 178 -27 26 -80
39 -80 19z m170 -461 c4 -3 13 -19 21 -37 14 -34 29 -27 29 15 0 19 5 22 42
22 l41 0 -23 -25 c-31 -33 -23 -39 30 -20 55 19 58 19 28 -5 -29 -22 -50 -92
-39 -124 8 -19 10 -18 24 14 8 19 31 51 51 69 l36 35 0 -65 c0 -83 -27 -188
-84 -320 -24 -57 -49 -124 -56 -147 -11 -44 -12 -44 -48 -38 -47 9 -80 47
-132 152 -54 111 -74 191 -74 299 -1 101 13 162 57 250 l30 60 30 -65 c17 -36
33 -67 37 -70z m110 64 c23 -22 23 -24 4 -24 -11 0 -29 -7 -41 -15 -21 -15
-23 -14 -29 12 -4 15 -16 40 -26 56 l-20 28 44 -17 c23 -9 54 -27 68 -40z"/>
<path d="M4500 1881 c0 -5 7 -11 15 -15 23 -8 22 -251 -1 -264 -12 -7 -6 -10
27 -15 48 -6 70 1 45 15 -12 7 -16 24 -16 63 0 48 2 55 20 55 15 0 29 -17 52
-64 24 -50 37 -65 57 -69 38 -7 43 0 17 28 -12 13 -31 43 -41 65 -18 40 -18
41 3 55 50 36 33 121 -28 142 -41 14 -150 17 -150 4z m141 -21 c14 -8 19 -21
19 -53 0 -52 -13 -67 -57 -67 l-33 0 0 65 c0 63 1 65 26 65 14 0 34 -5 45 -10z"/>
<path d="M4880 1881 c0 -5 7 -11 15 -15 12 -4 15 -29 15 -131 0 -110 -2 -127
-17 -133 -18 -7 161 -20 185 -13 14 4 17 57 3 65 -5 3 -14 -8 -20 -24 -9 -28
-13 -30 -60 -30 l-51 0 0 65 0 65 36 0 c27 0 37 -5 41 -20 10 -38 23 -20 23
31 0 31 -4 48 -10 44 -5 -3 -10 -13 -10 -21 0 -10 -12 -14 -40 -14 l-40 0 0
61 0 60 47 -3 c42 -3 50 -7 63 -33 l15 -30 3 28 c6 54 1 57 -103 57 -52 0 -95
-4 -95 -9z"/>
<path d="M5273 1880 c-26 -11 -43 -40 -43 -75 0 -42 17 -62 67 -81 67 -24 85
-42 81 -78 -6 -58 -97 -63 -116 -6 -13 36 -32 40 -32 7 0 -69 146 -90 180 -26
14 24 12 71 -3 90 -14 18 -61 43 -98 52 -14 4 -31 18 -38 33 -16 36 8 74 47
74 36 0 52 -17 52 -53 0 -38 34 -34 38 4 6 51 -71 85 -135 59z"/>
<path d="M5554 1876 c-3 -8 -4 -27 -1 -43 l3 -28 13 33 c12 29 17 33 45 30
l31 -3 1 -120 c1 -133 -1 -145 -24 -145 -8 0 -13 -3 -9 -6 10 -10 97 -12 103
-3 3 5 -2 9 -10 9 -14 0 -16 19 -16 135 l0 135 31 0 c25 0 32 -5 41 -31 13
-37 29 -20 19 20 -7 26 -8 26 -114 29 -86 2 -108 0 -113 -12z"/>
<path d="M6001 1868 c-5 -13 -26 -77 -47 -142 -27 -86 -43 -120 -56 -124 -30
-8 -11 -19 28 -16 37 3 61 14 31 14 -20 0 -21 6 -6 49 10 29 14 31 59 31 54 0
55 -1 65 -47 5 -28 4 -33 -12 -33 -11 0 -14 -3 -6 -8 6 -4 28 -6 50 -6 54 2
60 4 40 13 -12 4 -33 51 -65 146 -26 76 -53 141 -59 143 -7 2 -17 -7 -22 -20z
m32 -101 c24 -74 23 -77 -23 -77 -24 0 -40 5 -40 12 0 19 33 118 40 118 3 0
14 -24 23 -53z"/>
<path d="M6276 1881 c-3 -5 0 -11 8 -14 11 -4 15 -33 18 -116 3 -105 4 -112
31 -138 22 -22 37 -28 73 -28 38 0 50 5 70 28 22 26 24 36 24 138 0 88 3 111
15 115 8 4 15 10 15 15 0 12 -67 11 -75 -1 -3 -5 1 -10 9 -10 14 0 16 -18 16
-115 0 -102 -2 -117 -20 -135 -26 -26 -72 -26 -96 1 -27 29 -35 235 -10 245 9
3 16 10 16 15 0 12 -87 12 -94 0z"/>
<path d="M6680 1881 c0 -5 7 -11 15 -15 12 -4 15 -29 15 -131 0 -108 -2 -127
-17 -132 -15 -6 -15 -7 1 -13 10 -3 34 -4 53 -2 28 4 32 6 19 14 -12 7 -16 23
-16 63 0 48 2 55 20 55 15 0 29 -17 52 -64 22 -46 38 -66 54 -69 28 -5 53 7
32 16 -8 3 -28 30 -44 61 l-29 56 22 15 c51 36 35 121 -27 142 -41 14 -150 17
-150 4z m141 -21 c14 -8 19 -21 19 -53 0 -52 -13 -67 -57 -67 l-33 0 0 65 c0
63 1 65 26 65 14 0 34 -5 45 -10z"/>
<path d="M7141 1868 c-5 -13 -26 -76 -47 -141 -28 -90 -43 -121 -58 -127 -25
-10 -23 -11 27 -15 20 -1 40 1 43 6 3 5 -2 9 -10 9 -19 0 -20 7 -5 49 10 29
14 31 59 31 47 0 49 -1 60 -36 10 -29 10 -38 0 -44 -17 -11 -1 -16 40 -14 51
2 57 5 37 13 -12 4 -33 51 -65 146 -26 76 -53 141 -59 143 -7 2 -17 -7 -22
-20z m32 -101 c24 -74 23 -77 -23 -77 -24 0 -40 5 -40 12 0 19 33 118 40 118
3 0 14 -24 23 -53z"/>
<path d="M7420 1881 c0 -5 7 -11 15 -15 23 -8 22 -251 -1 -264 -14 -8 -14 -10
-1 -15 8 -3 28 -2 44 3 15 5 20 9 11 9 -16 1 -18 13 -18 116 0 63 2 115 4 115
2 0 32 -48 67 -107 70 -121 88 -145 100 -137 5 3 9 68 9 145 0 119 2 139 16
139 8 0 12 5 9 10 -8 12 -75 13 -75 1 0 -5 7 -11 15 -15 12 -4 15 -25 15 -103
0 -114 1 -115 -84 30 -55 93 -58 97 -91 97 -19 0 -35 -4 -35 -9z"/>
<path d="M7804 1876 c-3 -8 -4 -27 -1 -43 l3 -28 13 33 c12 29 17 33 45 30
l31 -3 3 -110 c3 -125 -2 -155 -25 -155 -9 0 -14 -2 -11 -5 8 -9 88 -11 100
-3 9 5 8 8 -4 8 -16 0 -18 13 -18 135 l0 135 30 0 c17 0 32 -6 34 -12 15 -48
17 -52 25 -39 5 7 5 25 2 40 -7 26 -8 26 -114 29 -86 2 -108 0 -113 -12z"/>
<path d="M8160 1881 c0 -5 7 -11 15 -15 12 -4 15 -29 15 -131 0 -110 -2 -127
-17 -133 -18 -7 161 -20 185 -13 14 4 17 57 3 65 -5 3 -14 -8 -20 -24 -9 -28
-13 -30 -60 -30 l-51 0 0 65 0 65 36 0 c27 0 37 -5 41 -20 10 -38 23 -20 23
31 0 31 -4 48 -10 44 -5 -3 -10 -13 -10 -21 0 -10 -12 -14 -40 -14 l-40 0 0
60 0 60 49 0 c46 0 50 -2 62 -32 l13 -33 3 28 c8 54 2 57 -102 57 -52 0 -95
-4 -95 -9z"/>
<path d="M9947 1623 c-14 -14 -5 -32 43 -87 28 -32 48 -62 45 -67 -13 -20 -35
-7 -80 46 -46 53 -85 72 -85 40 0 -9 18 -40 40 -69 43 -57 51 -86 23 -86 -11
0 -34 25 -57 61 -38 59 -67 74 -74 37 -4 -18 49 -109 87 -151 25 -27 74 -47
121 -47 21 -1 37 -20 95 -107 90 -136 180 -233 217 -233 38 0 53 30 35 72 -20
47 -92 142 -180 235 l-76 82 6 50 c8 73 -2 97 -69 167 -58 61 -76 72 -91 57z"/>
<path d="M10307 1589 c-22 -11 -51 -40 -68 -67 -28 -43 -30 -53 -26 -112 2
-36 -1 -73 -7 -82 -9 -15 -5 -24 21 -49 l31 -32 17 27 c14 21 25 26 57 26 54
0 113 33 144 80 91 138 -27 284 -169 209z m141 -98 c5 -46 -15 -91 -40 -91
-17 0 -19 4 -13 23 4 12 10 41 12 65 4 33 9 42 22 40 10 -2 17 -15 19 -37z"/>
<path d="M10013 1108 c-50 -73 -62 -118 -39 -137 10 -8 26 -11 42 -7 30 8 114
91 114 113 0 19 -52 93 -65 93 -6 0 -29 -28 -52 -62z"/>
<path d="M10525 809 c-27 -5 -85 -16 -128 -24 -42 -8 -96 -15 -120 -16 -41 -1
-41 -1 -12 -10 36 -11 130 -3 205 18 61 17 138 18 187 4 21 -6 35 -6 39 0 8
14 1 19 -43 30 -45 10 -61 10 -128 -2z"/>
<path d="M10925 790 c-38 -11 -144 -38 -235 -61 -148 -37 -178 -41 -285 -41
-116 0 -124 2 -235 42 -179 65 -276 78 -417 53 -62 -10 -24 -20 44 -11 103 14
183 2 292 -41 131 -52 250 -75 354 -68 128 9 267 33 321 56 53 23 204 51 276
51 36 0 68 -11 145 -51 l98 -52 121 7 c82 5 152 16 216 33 80 22 116 27 230
27 133 1 136 1 193 -31 31 -17 60 -27 63 -22 9 15 -10 33 -63 59 -90 46 -271
37 -549 -27 -139 -32 -186 -27 -293 30 -42 22 -103 46 -136 53 -72 16 -56 17
-140 -6z"/>
<path d="M11395 785 c-50 -17 -18 -20 54 -4 41 9 61 7 107 -6 31 -9 59 -14 62
-10 28 27 -154 44 -223 20z"/>
<path d="M9631 747 c-30 -11 -50 -22 -44 -24 11 -4 123 35 123 43 0 8 -26 2
-79 -19z"/>
<path d="M11308 763 c7 -3 16 -2 19 1 4 3 -2 6 -13 5 -11 0 -14 -3 -6 -6z"/>
<path d="M9502 698 c-24 -11 -42 -22 -39 -24 2 -3 29 6 58 20 30 13 47 24 39
24 -8 0 -35 -9 -58 -20z"/>
<path d="M11844 646 c-17 -13 -16 -14 18 -7 51 12 121 -3 195 -40 35 -18 69
-29 78 -25 23 8 10 23 -28 32 -17 3 -56 17 -86 30 -62 28 -146 32 -177 10z"/>
<path d="M9840 620 c-43 -15 -48 -19 -20 -15 19 3 70 8 112 11 76 7 78 6 158
-35 88 -45 100 -48 100 -27 0 7 -30 28 -66 46 -86 42 -199 50 -284 20z"/>
<path d="M11014 620 c-12 -5 -25 -15 -29 -22 -6 -10 -5 -11 6 0 21 19 109 15
147 -8 18 -11 37 -20 42 -20 20 0 9 19 -24 39 -35 22 -103 27 -142 11z"/>
</g>
</svg>
